<svg width="96" height="40" viewBox="0 0 96 40" fill="none" xmlns="http://www.w3.org/2000/svg">
<path d="M10.8581 1.05469V31.4062H16.8581V39H0.990936V1.05469H10.8581ZM41.5491 23.2734C41.5491 27.0859 41.4553 29.7891 41.2678 31.3828C41.0959 32.9609 40.5334 34.4062 39.5803 35.7188C38.6428 37.0312 37.3694 38.0391 35.76 38.7422C34.1506 39.4453 32.2756 39.7969 30.135 39.7969C28.1037 39.7969 26.2756 39.4688 24.6506 38.8125C23.0412 38.1406 21.7444 37.1406 20.76 35.8125C19.7756 34.4844 19.1897 33.0391 19.0022 31.4766C18.8147 29.9141 18.7209 27.1797 18.7209 23.2734V16.7812C18.7209 12.9688 18.8069 10.2734 18.9787 8.69531C19.1662 7.10156 19.7287 5.64844 20.6662 4.33594C21.6194 3.02344 22.9006 2.01562 24.51 1.3125C26.1194 0.609375 27.9944 0.257812 30.135 0.257812C32.1662 0.257812 33.9866 0.59375 35.5959 1.26562C37.2209 1.92188 38.5256 2.91406 39.51 4.24219C40.4944 5.57031 41.0803 7.01562 41.2678 8.57812C41.4553 10.1406 41.5491 12.875 41.5491 16.7812V23.2734ZM31.6819 10.8047C31.6819 9.03906 31.5803 7.91406 31.3772 7.42969C31.1897 6.92969 30.7912 6.67969 30.1819 6.67969C29.6662 6.67969 29.2678 6.88281 28.9866 7.28906C28.7209 7.67969 28.5881 8.85156 28.5881 10.8047V28.5234C28.5881 30.7266 28.6741 32.0859 28.8459 32.6016C29.0334 33.1172 29.4553 33.375 30.1116 33.375C30.7834 33.375 31.2131 33.0781 31.4006 32.4844C31.5881 31.8906 31.6819 30.4766 31.6819 28.2422V10.8047ZM68.3728 15.0234H58.5056V11.5781C58.5056 9.40625 58.4119 8.04688 58.2244 7.5C58.0369 6.95313 57.5916 6.67969 56.8884 6.67969C56.2791 6.67969 55.865 6.91406 55.6462 7.38281C55.4275 7.85156 55.3181 9.05469 55.3181 10.9922V29.2031C55.3181 30.9062 55.4275 32.0312 55.6462 32.5781C55.865 33.1094 56.3025 33.375 56.9587 33.375C57.6775 33.375 58.1619 33.0703 58.4119 32.4609C58.6775 31.8516 58.8103 30.6641 58.8103 28.8984V24.3984H56.8181V18.6328H68.3728V39H62.1619L61.2478 36.2812C60.5759 37.4531 59.7244 38.3359 58.6931 38.9297C57.6775 39.5078 56.4744 39.7969 55.0837 39.7969C53.4275 39.7969 51.8728 39.3984 50.4197 38.6016C48.9822 37.7891 47.8884 36.7891 47.1384 35.6016C46.3884 34.4141 45.9197 33.1719 45.7322 31.875C45.5447 30.5625 45.4509 28.6016 45.4509 25.9922V14.7188C45.4509 11.0938 45.6462 8.46094 46.0369 6.82031C46.4275 5.17969 47.5447 3.67969 49.3884 2.32031C51.2478 0.945312 53.6462 0.257812 56.5837 0.257812C59.4744 0.257812 61.8728 0.851562 63.7791 2.03906C65.6853 3.22656 66.9275 4.64062 67.5056 6.28125C68.0837 7.90625 68.3728 10.2734 68.3728 13.3828V15.0234ZM95.2434 23.2734C95.2434 27.0859 95.1497 29.7891 94.9622 31.3828C94.7903 32.9609 94.2278 34.4062 93.2747 35.7188C92.3372 37.0312 91.0638 38.0391 89.4544 38.7422C87.845 39.4453 85.97 39.7969 83.8294 39.7969C81.7981 39.7969 79.97 39.4688 78.345 38.8125C76.7356 38.1406 75.4388 37.1406 74.4544 35.8125C73.47 34.4844 72.8841 33.0391 72.6966 31.4766C72.5091 29.9141 72.4153 27.1797 72.4153 23.2734V16.7812C72.4153 12.9688 72.5013 10.2734 72.6731 8.69531C72.8606 7.10156 73.4231 5.64844 74.3606 4.33594C75.3138 3.02344 76.595 2.01562 78.2044 1.3125C79.8138 0.609375 81.6888 0.257812 83.8294 0.257812C85.8606 0.257812 87.6809 0.59375 89.2903 1.26562C90.9153 1.92188 92.22 2.91406 93.2044 4.24219C94.1888 5.57031 94.7747 7.01562 94.9622 8.57812C95.1497 10.1406 95.2434 12.875 95.2434 16.7812V23.2734ZM85.3763 10.8047C85.3763 9.03906 85.2747 7.91406 85.0716 7.42969C84.8841 6.92969 84.4856 6.67969 83.8763 6.67969C83.3606 6.67969 82.9622 6.88281 82.6809 7.28906C82.4153 7.67969 82.2825 8.85156 82.2825 10.8047V28.5234C82.2825 30.7266 82.3684 32.0859 82.5403 32.6016C82.7278 33.1172 83.1497 33.375 83.8059 33.375C84.4778 33.375 84.9075 33.0781 85.095 32.4844C85.2825 31.8906 85.3763 30.4766 85.3763 28.2422V10.8047Z" fill="#FED9DA"/>
</svg>
