<svg width="49" height="21" viewBox="0 0 49 21" fill="none" xmlns="http://www.w3.org/2000/svg">
<path d="M5.92906 1.02734V16.2031H8.92906V20H0.995468V1.02734H5.92906ZM21.2745 12.1367C21.2745 14.043 21.2277 15.3945 21.1339 16.1914C21.048 16.9805 20.7667 17.7031 20.2902 18.3594C19.8214 19.0156 19.1847 19.5195 18.38 19.8711C17.5753 20.2227 16.6378 20.3984 15.5675 20.3984C14.5519 20.3984 13.6378 20.2344 12.8253 19.9062C12.0206 19.5703 11.3722 19.0703 10.88 18.4062C10.3878 17.7422 10.0948 17.0195 10.0011 16.2383C9.90734 15.457 9.86047 14.0898 9.86047 12.1367V8.89062C9.86047 6.98438 9.90344 5.63672 9.98937 4.84766C10.0831 4.05078 10.3644 3.32422 10.8331 2.66797C11.3097 2.01172 11.9503 1.50781 12.755 1.15625C13.5597 0.804688 14.4972 0.628906 15.5675 0.628906C16.5831 0.628906 17.4933 0.796875 18.298 1.13281C19.1105 1.46094 19.7628 1.95703 20.255 2.62109C20.7472 3.28516 21.0402 4.00781 21.1339 4.78906C21.2277 5.57031 21.2745 6.9375 21.2745 8.89062V12.1367ZM16.3409 5.90234C16.3409 5.01953 16.2902 4.45703 16.1886 4.21484C16.0948 3.96484 15.8956 3.83984 15.5909 3.83984C15.3331 3.83984 15.1339 3.94141 14.9933 4.14453C14.8605 4.33984 14.7941 4.92578 14.7941 5.90234V14.7617C14.7941 15.8633 14.837 16.543 14.923 16.8008C15.0167 17.0586 15.2277 17.1875 15.5558 17.1875C15.8917 17.1875 16.1066 17.0391 16.2003 16.7422C16.2941 16.4453 16.3409 15.7383 16.3409 14.6211V5.90234ZM34.6864 8.01172H29.7528V6.28906C29.7528 5.20312 29.7059 4.52344 29.6122 4.25C29.5184 3.97656 29.2958 3.83984 28.9442 3.83984C28.6395 3.83984 28.4325 3.95703 28.3231 4.19141C28.2137 4.42578 28.1591 5.02734 28.1591 5.99609V15.1016C28.1591 15.9531 28.2137 16.5156 28.3231 16.7891C28.4325 17.0547 28.6512 17.1875 28.9794 17.1875C29.3387 17.1875 29.5809 17.0352 29.7059 16.7305C29.8387 16.4258 29.9052 15.832 29.9052 14.9492V12.6992H28.9091V9.81641H34.6864V20H31.5809L31.1239 18.6406C30.788 19.2266 30.3622 19.668 29.8466 19.9648C29.3387 20.2539 28.7372 20.3984 28.0419 20.3984C27.2137 20.3984 26.4364 20.1992 25.7098 19.8008C24.9911 19.3945 24.4442 18.8945 24.0692 18.3008C23.6942 17.707 23.4598 17.0859 23.3661 16.4375C23.2723 15.7812 23.2255 14.8008 23.2255 13.4961V7.85938C23.2255 6.04688 23.3231 4.73047 23.5184 3.91016C23.7137 3.08984 24.2723 2.33984 25.1942 1.66016C26.1239 0.972656 27.3231 0.628906 28.7919 0.628906C30.2372 0.628906 31.4364 0.925781 32.3895 1.51953C33.3427 2.11328 33.9637 2.82031 34.2528 3.64062C34.5419 4.45312 34.6864 5.63672 34.6864 7.19141V8.01172ZM48.1217 12.1367C48.1217 14.043 48.0748 15.3945 47.9811 16.1914C47.8952 16.9805 47.6139 17.7031 47.1373 18.3594C46.6686 19.0156 46.0319 19.5195 45.2272 19.8711C44.4225 20.2227 43.485 20.3984 42.4147 20.3984C41.3991 20.3984 40.485 20.2344 39.6725 19.9062C38.8678 19.5703 38.2194 19.0703 37.7272 18.4062C37.235 17.7422 36.942 17.0195 36.8483 16.2383C36.7545 15.457 36.7077 14.0898 36.7077 12.1367V8.89062C36.7077 6.98438 36.7506 5.63672 36.8366 4.84766C36.9303 4.05078 37.2116 3.32422 37.6803 2.66797C38.1569 2.01172 38.7975 1.50781 39.6022 1.15625C40.4069 0.804688 41.3444 0.628906 42.4147 0.628906C43.4303 0.628906 44.3405 0.796875 45.1452 1.13281C45.9577 1.46094 46.61 1.95703 47.1022 2.62109C47.5944 3.28516 47.8873 4.00781 47.9811 4.78906C48.0748 5.57031 48.1217 6.9375 48.1217 8.89062V12.1367ZM43.1881 5.90234C43.1881 5.01953 43.1373 4.45703 43.0358 4.21484C42.942 3.96484 42.7428 3.83984 42.4381 3.83984C42.1803 3.83984 41.9811 3.94141 41.8405 4.14453C41.7077 4.33984 41.6413 4.92578 41.6413 5.90234V14.7617C41.6413 15.8633 41.6842 16.543 41.7702 16.8008C41.8639 17.0586 42.0748 17.1875 42.403 17.1875C42.7389 17.1875 42.9538 17.0391 43.0475 16.7422C43.1413 16.4453 43.1881 15.7383 43.1881 14.6211V5.90234Z" fill="#5928E5"/>
</svg>
